<?xml version="1.0" encoding="utf-8"?>
<!-- Generator: Adobe Illustrator 16.0.0, SVG Export Plug-In . SVG Version: 6.00 Build 0)  -->
<!DOCTYPE svg PUBLIC "-//W3C//DTD SVG 1.1//EN" "http://www.w3.org/Graphics/SVG/1.1/DTD/svg11.dtd">
<svg version="1.1" id="Layer_1" xmlns="http://www.w3.org/2000/svg" xmlns:xlink="http://www.w3.org/1999/xlink" x="0px" y="0px"
	 width="128px" height="128px" viewBox="0 0 128 128" enable-background="new 0 0 128 128" xml:space="preserve">
<ellipse fill="#D3D3D3" cx="65.107" cy="116.348" rx="45.803" ry="4.269"/>
<path d="M64.094,117.948c-29.618,0-53.713-24.096-53.713-53.713s24.096-53.713,53.713-53.713c29.617,0,53.713,24.096,53.713,53.713
	S93.711,117.948,64.094,117.948z"/>
<path d="M64.094,116.748c-28.956,0-52.513-23.558-52.513-52.513c0-28.956,23.557-52.513,52.513-52.513s52.513,23.557,52.513,52.513
	C116.606,93.19,93.05,116.748,64.094,116.748z"/>
<circle fill="#FFFFFF" cx="64.094" cy="64.235" r="51.013"/>
<path fill="#F4F4F4" d="M64.094,107.04c-21.078,0-39.372-11.034-48.579-27.218c6.588,20.548,25.842,35.426,48.579,35.426
	c22.735,0,41.988-14.877,48.577-35.424C103.464,96.007,85.171,107.04,64.094,107.04z"/>
<path d="M57.473,75.964c-0.75,2.678,2.57,7.604,6.961,7.604c4.393,0,7.814-4.644,7.175-7.604c-0.856-3.962-3.748,1.393-6.96,1.5
	C61.435,77.57,58.537,72.161,57.473,75.964z"/>
<path d="M35.136,59.527c0.452-1.674-1.646-4.727-4.384-4.702c-2.739,0.025-4.847,2.939-4.431,4.782
	c0.556,2.466,2.329-0.89,4.332-0.975C32.656,58.548,34.493,61.905,35.136,59.527z"/>
<path d="M92.446,58.862c-0.452-1.674,1.646-4.727,4.384-4.702c2.739,0.025,4.847,2.939,4.43,4.782
	c-0.555,2.466-2.328-0.89-4.33-0.975C94.927,57.883,93.089,61.239,92.446,58.862z"/>
</svg>
