<?xml version="1.0" encoding="utf-8"?>
<!-- Generator: Adobe Illustrator 16.0.0, SVG Export Plug-In . SVG Version: 6.00 Build 0)  -->
<!DOCTYPE svg PUBLIC "-//W3C//DTD SVG 1.1//EN" "http://www.w3.org/Graphics/SVG/1.1/DTD/svg11.dtd">
<svg version="1.1" id="Layer_1" xmlns="http://www.w3.org/2000/svg" xmlns:xlink="http://www.w3.org/1999/xlink" x="0px" y="0px"
	 width="128px" height="128px" viewBox="0 0 128 128" enable-background="new 0 0 128 128" xml:space="preserve">
<rect x="-0.812" y="-1.105" fill="#EC407A" width="130.39" height="130.39"/>
<path opacity="0.7" fill="#616161" d="M63.674,25.772c-22.18,0-40.16,17.98-40.16,40.159c0,22.18,17.98,40.16,40.16,40.16
	c22.179,0,40.159-17.98,40.159-40.16C103.833,43.752,85.853,25.772,63.674,25.772z M99.43,71.322
	c-8.58-3.141-17.87-5.172-27.344-4.971c-0.36-2.759-0.792-5.498-1.296-8.187c9.808-1.655,18.807-4.434,25.301-8.229
	c2.391,4.826,3.742,10.256,3.742,15.997C99.833,67.764,99.693,69.563,99.43,71.322z M93.807,45.974
	c-7.438,3.559-15.552,6.107-23.945,7.665c-2.095-9.408-5.071-17.871-8.77-23.764c0.854-0.061,1.713-0.103,2.583-0.103
	C76.239,29.772,87.323,36.218,93.807,45.974z M56.279,30.535c3.833,6.93,6.764,15.148,8.794,23.881
	c-11.789,1.643-23.944,1.367-35.396-0.8C33.906,41.978,43.95,33.108,56.279,30.535z M28.411,57.959
	c10.979,2.349,24.726,2.575,37.612,0.914c0.499,2.566,0.921,5.163,1.27,7.774c-11.875,1.229-23.887,6.238-35.006,17.205
	c-3.03-5.285-4.773-11.4-4.773-17.92C27.514,63.192,27.831,60.526,28.411,57.959z M35.215,88.199
	c9.895-10.613,21.351-15.416,32.639-16.68c1.022,10.523,0.835,21.063-0.574,30.391c-1.187,0.119-2.389,0.182-3.605,0.182
	C52.13,102.092,41.84,96.646,35.215,88.199z M72.179,101.072c1.428-8.547,1.514-19.189,0.461-29.889
	c9.228-0.256,18.166,1.66,25.855,4.471C94.989,88.191,84.888,97.996,72.179,101.072z"/>
<path fill="#FFFDE7" d="M64.24,25.062c-22.18,0-40.16,17.98-40.16,40.16c0,22.179,17.98,40.159,40.16,40.159
	c22.179,0,40.159-17.98,40.159-40.159C104.399,43.042,86.419,25.062,64.24,25.062z M99.996,70.611
	c-8.58-3.141-17.87-5.172-27.344-4.971c-0.36-2.758-0.792-5.498-1.296-8.187c9.808-1.655,18.807-4.434,25.301-8.229
	c2.391,4.826,3.742,10.256,3.742,15.997C100.399,67.053,100.26,68.853,99.996,70.611z M94.373,45.264
	c-7.438,3.559-15.552,6.107-23.945,7.665c-2.095-9.408-5.071-17.871-8.77-23.764c0.854-0.061,1.713-0.103,2.583-0.103
	C76.806,29.062,87.89,35.508,94.373,45.264z M56.846,29.825c3.833,6.93,6.764,15.148,8.794,23.881
	c-11.789,1.643-23.944,1.367-35.396-0.8C34.473,41.267,44.517,32.397,56.846,29.825z M28.978,57.249
	c10.979,2.349,24.726,2.575,37.612,0.914c0.499,2.566,0.921,5.163,1.27,7.773c-11.875,1.229-23.887,6.239-35.006,17.206
	c-3.03-5.286-4.773-11.401-4.773-17.92C28.081,62.481,28.397,59.815,28.978,57.249z M35.781,87.488
	c9.895-10.613,21.351-15.415,32.639-16.68c1.022,10.524,0.835,21.063-0.574,30.392c-1.187,0.118-2.389,0.181-3.605,0.181
	C52.696,101.381,42.406,95.937,35.781,87.488z M72.745,100.361c1.428-8.547,1.514-19.189,0.461-29.889
	c9.228-0.256,18.166,1.66,25.855,4.471C95.556,87.48,85.454,97.285,72.745,100.361z"/>
</svg>
