<?xml version="1.0" encoding="utf-8"?>
<!-- Generator: Adobe Illustrator 16.0.0, SVG Export Plug-In . SVG Version: 6.00 Build 0)  -->
<!DOCTYPE svg PUBLIC "-//W3C//DTD SVG 1.1//EN" "http://www.w3.org/Graphics/SVG/1.1/DTD/svg11.dtd">
<svg version="1.1" id="Layer_1" xmlns="http://www.w3.org/2000/svg" xmlns:xlink="http://www.w3.org/1999/xlink" x="0px" y="0px"
	 width="128px" height="128px" viewBox="0 0 128 128" enable-background="new 0 0 128 128" xml:space="preserve">
<rect x="-1.479" y="-1.829" width="131.044" height="131.403"/>
<path fill="#31C951" d="M91.055,87.355L67.822,65.171l22.052-19.688c4.508-4.25,4.717-11.348,0.468-15.854
	c-4.249-4.507-11.347-4.716-15.854-0.467l-18.57,16.39V33.489c0-6.194-5.021-11.216-11.215-11.216
	c-6.194,0-11.216,5.021-11.216,11.216v63.517c0,6.194,5.021,11.216,11.216,11.216c6.194,0,11.215-5.021,11.215-11.216V84.98
	l19.248,18.207c4.373,4.389,11.474,4.401,15.861,0.029C95.415,98.844,95.426,91.743,91.055,87.355z"/>
</svg>
