<?xml version="1.0" encoding="utf-8"?>
<!-- Generator: Adobe Illustrator 16.0.0, SVG Export Plug-In . SVG Version: 6.00 Build 0)  -->
<!DOCTYPE svg PUBLIC "-//W3C//DTD SVG 1.1//EN" "http://www.w3.org/Graphics/SVG/1.1/DTD/svg11.dtd">
<svg version="1.1" id="Layer_1" xmlns="http://www.w3.org/2000/svg" xmlns:xlink="http://www.w3.org/1999/xlink" x="0px" y="0px"
	 width="128px" height="128px" viewBox="0 0 128 128" enable-background="new 0 0 128 128" xml:space="preserve">
<rect x="-0.812" y="-1.105" fill="#E64A19" width="130.39" height="130.39"/>
<g opacity="0.6">
	<path d="M38.33,29.216c5.334-0.91,12.821-1.589,23.37-1.589c10.664,0,18.268,2.042,23.371,6.124
		c4.876,3.862,8.165,10.212,8.165,17.699c0,7.486-2.493,13.841-7.029,18.149c-5.902,5.561-14.637,8.055-24.849,8.055
		c-2.268,0-4.309-0.111-5.898-0.342v27.344H38.33V29.216z M55.46,63.929c1.474,0.342,3.288,0.452,5.787,0.452
		c9.187,0,14.858-4.65,14.858-12.479c0-7.03-4.877-11.228-13.5-11.228c-3.515,0-5.898,0.337-7.145,0.679V63.929z"/>
</g>
<g>
	<path fill="#FFFDE7" d="M37.33,28.216c5.334-0.91,12.821-1.589,23.37-1.589c10.664,0,18.268,2.042,23.371,6.124
		c4.876,3.862,8.165,10.212,8.165,17.699c0,7.486-2.493,13.841-7.029,18.149c-5.902,5.561-14.637,8.055-24.849,8.055
		c-2.268,0-4.309-0.111-5.898-0.342v27.344H37.33V28.216z M54.46,62.929c1.474,0.342,3.288,0.452,5.787,0.452
		c9.187,0,14.858-4.65,14.858-12.479c0-7.03-4.877-11.228-13.5-11.228c-3.515,0-5.898,0.337-7.145,0.679V62.929z"/>
</g>
</svg>
