<?xml version="1.0" encoding="utf-8"?>
<!-- Generator: Adobe Illustrator 16.0.0, SVG Export Plug-In . SVG Version: 6.00 Build 0)  -->
<!DOCTYPE svg PUBLIC "-//W3C//DTD SVG 1.1//EN" "http://www.w3.org/Graphics/SVG/1.1/DTD/svg11.dtd">
<svg version="1.1" id="Layer_1" xmlns="http://www.w3.org/2000/svg" xmlns:xlink="http://www.w3.org/1999/xlink" x="0px" y="0px"
	 width="128px" height="128px" viewBox="0 0 128 128" enable-background="new 0 0 128 128" xml:space="preserve">
<rect x="-0.812" y="-1.105" fill="#CDDC39" width="130.39" height="130.39"/>
<path fill="#FFFFFF" d="M104.777,56.715c-1.865,0-3.644,0.353-5.295,0.967C95.621,43.518,83.49,32.768,68.597,30.943
	c1.877-3.448,4.504-6.184,10.103-9.299c-7.729-0.727-13.326,2.917-15.538,7.187c-1.36-2.63-4.217-5.033-8.515-5.827
	c3.068,3.062,4.372,5.372,5.027,7.931c-14.939,1.796-27.112,12.569-30.974,26.77c-1.668-0.629-3.468-0.99-5.356-0.99
	c-8.392,0-15.195,6.803-15.195,15.195c0,8.393,6.803,15.195,15.195,15.195c3.095,0,5.971-0.931,8.372-2.52
	c1.367,2.56,3.021,4.942,4.931,7.096c1.777-2.463,4.581-4.637,8.114-6.358c-2.09-2.393-3.82-5.361-4.958-8.755
	c-3.623-10.799,0.106-21.787,8.328-24.545c5.395-1.81,11.373,0.392,15.877,5.158c4.521-4.729,10.496-6.895,15.874-5.066
	c8.21,2.792,11.893,13.796,8.226,24.58c-1.071,3.148-2.659,5.914-4.563,8.205c3.651,1.644,6.586,3.756,8.532,6.167
	c1.68-1.979,3.152-4.141,4.387-6.447c2.39,1.566,5.244,2.485,8.315,2.485c8.392,0,15.195-6.803,15.195-15.195
	C119.973,63.518,113.169,56.715,104.777,56.715z M23.402,75.674c-1.958,0-3.545-1.588-3.545-3.546c0-1.959,1.587-3.546,3.545-3.546
	c1.958,0,3.546,1.587,3.546,3.546C26.948,74.086,25.36,75.674,23.402,75.674z M104.837,75.674c-1.959,0-3.546-1.588-3.546-3.546
	c0-1.959,1.587-3.546,3.546-3.546c1.958,0,3.545,1.587,3.545,3.546C108.382,74.086,106.795,75.674,104.837,75.674z"/>
</svg>
