<?xml version="1.0" encoding="utf-8"?>
<!-- Generator: Adobe Illustrator 16.0.0, SVG Export Plug-In . SVG Version: 6.00 Build 0)  -->
<!DOCTYPE svg PUBLIC "-//W3C//DTD SVG 1.1//EN" "http://www.w3.org/Graphics/SVG/1.1/DTD/svg11.dtd">
<svg version="1.1" id="Layer_1" xmlns="http://www.w3.org/2000/svg" xmlns:xlink="http://www.w3.org/1999/xlink" x="0px" y="0px"
	 width="128px" height="128px" viewBox="0 0 128 128" enable-background="new 0 0 128 128" xml:space="preserve">
<rect x="-0.812" y="-1.105" fill="#26C6DA" width="130.39" height="130.39"/>
<path fill="#FFFFFF" d="M115.94,26.075c-4.354,5.619-7.619,7.042-10.227,8.7c2.714-2.812,5.3-7.021,5.152-14.86
	c-4.521,4.322-7.934,7.513-10.411,10.924c-7.442-5.224-17.738-4.951-24.91,1.281c-3.457,3.004-5.627,6.927-6.508,11.087
	c-12.763-5.95-31.985-0.034-52.251-12.989c1.208,9.745,5.282,18.451,10.81,25.569c-3.581-1.126-7.256-2.778-10.948-5.35
	c0.883,10.53,5.58,18.93,14.483,23.763c-3.423-0.067-8.264,1.376-12.156,0.065c2.299,5.97,6.464,13.937,20.913,13.712
	c-5.583,2.719-17.572,6.828-27.801,7.896c58.081,32.847,101.668-6.922,96.768-52.131c-0.042-0.384-0.174-0.757-0.347-1.123
	c-0.141-0.578-0.314-1.148-0.506-1.715C111.331,38.496,115.014,34.692,115.94,26.075z"/>
</svg>
